<svg width="20" height="20" viewBox="0 0 20 20" fill="none" xmlns="http://www.w3.org/2000/svg">
<path d="M14 8.6666H18V4.6666C18 3.9336 17.3998 3.3334 16.6666 3.3334H3.3334C2.6002 3.3334 2 3.9336 2 4.6666V16C2 16.3658 2.3002 16.6666 2.6666 16.6666H17.3334C17.6998 16.6666 18 16.3658 18 16V14H14C12.5274 14 11.3334 12.806 11.3334 11.3334C11.3334 9.8608 12.5274 8.6666 14 8.6666ZM3.3334 6V4.6666H16.6666V6H3.3334Z" fill="#07C419"/>
<path d="M12.6666 11.3334C12.6666 12.0678 13.265 12.6666 14 12.6666H18V10H14C13.265 10 12.6666 10.5976 12.6666 11.3334Z" fill="#07C419"/>
</svg>
